<svg width="26" height="25" viewBox="0 0 26 25" fill="none" xmlns="http://www.w3.org/2000/svg">
<path d="M21.1987 13.2812C21.1987 11.7361 20.7405 10.2256 19.8821 8.94086C19.0236 7.6561 17.8035 6.65475 16.376 6.06344C14.9484 5.47213 13.3776 5.31742 11.8621 5.61887C10.3466 5.92031 8.95457 6.66438 7.86197 7.75698C6.76937 8.84958 6.0253 10.2416 5.72385 11.7571C5.42241 13.2726 5.57712 14.8434 6.16843 16.271C6.75974 17.6985 7.76109 18.9187 9.04585 19.7771C10.3306 20.6356 11.8411 21.0937 13.3862 21.0938C15.4582 21.0937 17.4454 20.2706 18.9105 18.8055C20.3756 17.3404 21.1987 15.3533 21.1987 13.2812ZM7.82227 4.45361C7.4123 4.10279 6.89115 3.90883 6.35157 3.90625L6.21534 3.91016C4.96778 3.98535 4.00782 5.07812 4.01124 6.39648C4.01124 7.0415 4.23878 7.34228 4.54249 7.72607C4.56136 7.75074 4.58518 7.77117 4.61243 7.78605C4.63968 7.80094 4.66975 7.80995 4.70069 7.8125H4.74366C4.76786 7.81207 4.79163 7.80607 4.81313 7.79498C4.83464 7.78389 4.8533 7.768 4.86768 7.74854L7.83497 4.83398C7.86031 4.80836 7.8801 4.7778 7.89312 4.7442C7.90614 4.7106 7.91211 4.67468 7.91065 4.63867C7.90942 4.60341 7.90094 4.56878 7.88574 4.53694C7.87053 4.5051 7.84893 4.47673 7.82227 4.45361ZM18.9434 4.45361C19.3533 4.10279 19.8745 3.90883 20.4141 3.90625L20.5503 3.91016C21.7979 3.98535 22.7578 5.07812 22.7544 6.39648C22.7544 7.0415 22.5269 7.34228 22.2232 7.72607C22.2042 7.75065 22.1804 7.77099 22.1531 7.78579C22.1259 7.80059 22.0959 7.80952 22.0649 7.81201H22.022C21.9978 7.81158 21.974 7.80558 21.9525 7.79449C21.931 7.7834 21.9123 7.76751 21.898 7.74805L18.9307 4.83398C18.9053 4.80836 18.8855 4.7778 18.8725 4.7442C18.8595 4.7106 18.8535 4.67468 18.855 4.63867C18.8562 4.60341 18.8647 4.56878 18.8799 4.53694C18.8951 4.5051 18.9167 4.47673 18.9434 4.45361Z" stroke="#005C99" stroke-width="2" stroke-miterlimit="10"/>
<path d="M13.3862 7.8125V13.2812H9.47998M21.1987 21.0938L19.2456 19.1406M5.57373 21.0938L7.52686 19.1406" stroke="#005C99" stroke-width="2" stroke-linecap="round" stroke-linejoin="round"/>
</svg>
