<svg width="25" height="25" viewBox="0 0 25 25" fill="none" xmlns="http://www.w3.org/2000/svg">
<path d="M10.5508 9.37496V16.3989C10.5589 16.9125 10.7686 17.4023 11.1347 17.7627C11.5008 18.123 11.9939 18.325 12.5076 18.325C13.0213 18.325 13.5143 18.123 13.8804 17.7627C14.2465 17.4023 14.4562 16.9125 14.4644 16.3989L14.4707 7.19235C14.476 6.75335 14.3942 6.31766 14.2299 5.91053C14.0655 5.50341 13.822 5.13295 13.5135 4.82063C13.2049 4.50831 12.8375 4.26034 12.4324 4.0911C12.0273 3.92186 11.5926 3.83472 11.1536 3.83472C10.7145 3.83472 10.2799 3.92186 9.87477 4.0911C9.46967 4.26034 9.10219 4.50831 8.79363 4.82063C8.48508 5.13295 8.24159 5.50341 8.07728 5.91053C7.91297 6.31766 7.8311 6.75335 7.83643 7.19235V16.4609C7.82748 17.0789 7.94149 17.6926 8.17182 18.2662C8.40214 18.8398 8.7442 19.3619 9.17809 19.8021C9.61199 20.2423 10.1291 20.5919 10.6993 20.8305C11.2695 21.0691 11.8814 21.192 12.4995 21.192C13.1176 21.192 13.7296 21.0691 14.2998 20.8305C14.87 20.5919 15.387 20.2423 15.8209 19.8021C16.2548 19.3619 16.5969 18.8398 16.8272 18.2662C17.0575 17.6926 17.1715 17.0789 17.1626 16.4609V7.79977" stroke="#005C99" stroke-width="2" stroke-miterlimit="10" stroke-linecap="round"/>
</svg>
