<svg width="25" height="25" viewBox="0 0 25 25" fill="none" xmlns="http://www.w3.org/2000/svg">
<path d="M17.1162 7.25977L15.8164 5.20605C15.5425 4.88672 15.167 4.6875 14.7461 4.6875H10.2539C9.83301 4.6875 9.45752 4.88672 9.18359 5.20605L7.88379 7.25977C7.60986 7.57959 7.25684 7.8125 6.83594 7.8125H3.90625C3.49185 7.8125 3.09442 7.97712 2.8014 8.27015C2.50837 8.56317 2.34375 8.9606 2.34375 9.375V18.75C2.34375 19.1644 2.50837 19.5618 2.8014 19.8549C3.09442 20.1479 3.49185 20.3125 3.90625 20.3125H21.0938C21.5082 20.3125 21.9056 20.1479 22.1986 19.8549C22.4916 19.5618 22.6562 19.1644 22.6562 18.75V9.375C22.6562 8.9606 22.4916 8.56317 22.1986 8.27015C21.9056 7.97712 21.5082 7.8125 21.0938 7.8125H18.2129C17.7905 7.8125 17.3901 7.57959 17.1162 7.25977Z" stroke="#005C99" stroke-width="2" stroke-linecap="round" stroke-linejoin="round"/>
<path d="M6.05469 7.71484V6.64062H4.88281V7.71484M16.3945 13.9268V13.2769C16.3942 12.5357 16.183 11.81 15.7857 11.1843C15.3883 10.5587 14.8212 10.0591 14.1505 9.74368C13.4798 9.4283 12.7333 9.31023 11.998 9.40326C11.2627 9.49628 10.5691 9.79657 9.99805 10.269M8.59375 12.6357V13.2856C8.59429 14.0252 8.80478 14.7495 9.20075 15.3741C9.59672 15.9988 10.1619 16.4982 10.8305 16.8143C11.4992 17.1304 12.2438 17.2502 12.9779 17.1597C13.7119 17.0692 14.4052 16.7722 14.9771 16.3032" stroke="#005C99" stroke-width="2" stroke-linecap="round" stroke-linejoin="round"/>
<path d="M9.57031 13.2812L8.59375 12.3047L7.61719 13.2812M17.3828 13.2812L16.4062 14.2578L15.4297 13.2812" stroke="#005C99" stroke-width="2" stroke-linecap="round" stroke-linejoin="round"/>
</svg>
