<svg width="25" height="25" viewBox="0 0 25 25" fill="none" xmlns="http://www.w3.org/2000/svg">
<path d="M12.5 13.7695C13.2011 13.7695 13.7695 13.2011 13.7695 12.5C13.7695 11.7989 13.2011 11.2305 12.5 11.2305C11.7989 11.2305 11.2305 11.7989 11.2305 12.5C11.2305 13.2011 11.7989 13.7695 12.5 13.7695Z" fill="#00AAFF" stroke="#00AAFF" stroke-width="2" stroke-miterlimit="10"/>
<path d="M16.8945 13.7695C17.5957 13.7695 18.1641 13.2011 18.1641 12.5C18.1641 11.7989 17.5957 11.2305 16.8945 11.2305C16.1934 11.2305 15.625 11.7989 15.625 12.5C15.625 13.2011 16.1934 13.7695 16.8945 13.7695Z" fill="#00AAFF" stroke="#00AAFF" stroke-width="2" stroke-miterlimit="10"/>
<path d="M8.10547 13.7695C8.80661 13.7695 9.375 13.2011 9.375 12.5C9.375 11.7989 8.80661 11.2305 8.10547 11.2305C7.40433 11.2305 6.83594 11.7989 6.83594 12.5C6.83594 13.2011 7.40433 13.7695 8.10547 13.7695Z" fill="#00AAFF" stroke="#00AAFF" stroke-width="2" stroke-miterlimit="10"/>
<path d="M7.8125 17.9688L1.5625 12.5L7.8125 7.03125M17.1875 17.9688L23.4375 12.5L17.1875 7.03125" stroke="#00AAFF" stroke-width="2" stroke-linecap="round" stroke-linejoin="round"/>
</svg>
