<svg width="25" height="25" viewBox="0 0 25 25" fill="none" xmlns="http://www.w3.org/2000/svg">
<path d="M23.4375 2.34375H1.5625C1.3553 2.34375 1.15659 2.42606 1.01007 2.57257C0.86356 2.71909 0.78125 2.9178 0.78125 3.125V18.75C0.78125 18.9572 0.86356 19.1559 1.01007 19.3024C1.15659 19.4489 1.3553 19.5312 1.5625 19.5312H9.76562V21.0938H6.25V22.6562H18.75V21.0938H15.2344V19.5312H23.4375C23.6447 19.5312 23.8434 19.4489 23.9899 19.3024C24.1364 19.1559 24.2188 18.9572 24.2188 18.75V3.125C24.2188 2.9178 24.1364 2.71909 23.9899 2.57257C23.8434 2.42606 23.6447 2.34375 23.4375 2.34375ZM22.4609 4.10156V14.6484H2.53906V4.10156H22.4609ZM11.7251 17.2891C11.7039 17.1273 11.734 16.9629 11.811 16.819C11.888 16.6752 12.0081 16.559 12.1545 16.4869C12.3009 16.4148 12.4662 16.3903 12.6272 16.417C12.7882 16.4436 12.9368 16.5199 13.0522 16.6353C13.1676 16.7507 13.2439 16.8993 13.2705 17.0603C13.2972 17.2213 13.2727 17.3866 13.2006 17.533C13.1285 17.6794 13.0123 17.7995 12.8685 17.8765C12.7246 17.9535 12.5602 17.9836 12.3984 17.9624C12.2277 17.9401 12.0691 17.8619 11.9473 17.7402C11.8256 17.6184 11.7474 17.4598 11.7251 17.2891Z" fill="#00AAFF"/>
</svg>
