<svg width="25" height="25" viewBox="0 0 25 25" fill="none" xmlns="http://www.w3.org/2000/svg">
<path d="M3.08977 9.86328C2.95803 9.86447 2.82831 9.83078 2.7138 9.76563C2.6298 9.71841 2.55607 9.65492 2.49691 9.57887C2.43775 9.50282 2.39435 9.41574 2.36925 9.32271C2.34415 9.22968 2.33786 9.13259 2.35074 9.0371C2.36362 8.94161 2.39542 8.84965 2.44426 8.7666C3.38567 7.19531 6.24993 3.52783 12.4999 3.52783C15.2084 3.52783 17.5839 4.23926 19.5571 5.6416C21.1811 6.79248 22.0912 8.09522 22.5248 8.72266C22.5798 8.80174 22.6184 8.89104 22.6384 8.98527C22.6584 9.07951 22.6593 9.17679 22.6411 9.27138C22.6229 9.36597 22.5859 9.45597 22.5324 9.53607C22.4789 9.61617 22.4099 9.68476 22.3295 9.73779C22.1652 9.84643 21.965 9.8868 21.7714 9.85034C21.5778 9.81388 21.406 9.70346 21.2924 9.54248C20.5077 8.41406 18.1152 4.98047 12.4999 4.98047C7.01897 4.98047 4.54094 8.14014 3.73382 9.49512C3.66896 9.60827 3.57508 9.70205 3.46185 9.76677C3.34863 9.83149 3.22018 9.86481 3.08977 9.86328Z" fill="#005C99"/>
<path d="M15.649 24.2188C15.5867 24.2195 15.5245 24.2124 15.464 24.1978C10.9303 23.0747 9.23739 18.5425 9.16854 18.354L9.1578 18.3125C9.12069 18.1816 8.21102 15.0737 9.60751 13.2534C10.2476 12.4233 11.2213 11.9976 12.5069 11.9976C13.7022 11.9976 14.5645 12.3691 15.1573 13.1382C15.6456 13.7661 15.8409 14.5405 16.0299 15.2866C16.4268 16.8403 16.7135 17.6562 18.3634 17.7402C19.088 17.7769 19.5641 17.353 19.8341 16.9922C20.5641 16.0083 20.691 14.4043 20.1407 12.9883C19.4337 11.1606 16.9244 7.71484 12.5001 7.71484C10.6114 7.71484 8.87606 8.32178 7.48446 9.4624C6.3326 10.4072 5.42001 11.7412 4.98055 13.1123C4.16561 15.665 5.23446 19.6777 5.24471 19.7144C5.26967 19.8077 5.27568 19.9052 5.26237 20.0009C5.24907 20.0967 5.21674 20.1888 5.16727 20.2719C5.1178 20.3549 5.05221 20.4272 4.97435 20.4845C4.8965 20.5418 4.80796 20.5829 4.71395 20.6055C4.52404 20.656 4.3219 20.6301 4.15086 20.5333C3.97982 20.4366 3.85348 20.2767 3.79891 20.0879C3.75009 19.9048 2.60848 15.625 3.54989 12.6748C4.57528 9.47803 7.73983 6.25537 12.5016 6.25537C14.7022 6.25537 16.7813 7.00342 18.5167 8.41602C19.8604 9.51465 20.9581 10.9902 21.5323 12.4653C22.2623 14.3486 22.0665 16.4624 21.0348 17.8433C20.3473 18.7642 19.3683 19.2456 18.2838 19.1934C15.4586 19.0518 14.9508 17.0796 14.5807 15.6411C14.1998 14.1655 13.9561 13.4541 12.5016 13.4541C11.7027 13.4541 11.1417 13.6738 10.7926 14.1289C10.3165 14.7515 10.2794 15.7246 10.3321 16.4307C10.3667 16.9226 10.4502 17.4098 10.5811 17.8853C10.6974 18.1782 12.2105 21.8892 15.8346 22.7871C15.9282 22.8093 16.0166 22.8499 16.0944 22.9065C16.1723 22.9631 16.2381 23.0346 16.2881 23.1169C16.338 23.1992 16.3712 23.2906 16.3855 23.3858C16.3999 23.4809 16.3952 23.578 16.3717 23.6714C16.3274 23.829 16.2329 23.9678 16.1024 24.0666C15.9719 24.1654 15.8127 24.2189 15.649 24.2188Z" fill="#005C99"/>
<path d="M9.8296 23.8838C9.72799 23.884 9.62737 23.8637 9.53375 23.8242C9.44012 23.7847 9.35542 23.7268 9.28468 23.6538C7.47023 21.7495 6.44386 19.6201 6.05763 16.9575V16.9434C5.84083 15.1807 6.15822 12.6851 7.71339 10.9692C8.86134 9.70312 10.4751 9.05957 12.5015 9.05957C14.898 9.05957 16.7813 10.1738 17.9556 12.2769C18.8076 13.8047 18.9766 15.3271 18.981 15.3896C18.9899 15.486 18.9797 15.5832 18.9511 15.6756C18.9224 15.7681 18.8758 15.8539 18.8138 15.9283C18.7519 16.0027 18.676 16.0641 18.5903 16.1091C18.5046 16.1541 18.4109 16.1817 18.3145 16.1904C18.12 16.2115 17.925 16.1553 17.7716 16.0339C17.6182 15.9125 17.5188 15.7356 17.4946 15.5415C17.366 14.628 17.0704 13.746 16.6226 12.9395C15.7124 11.3335 14.3277 10.5171 12.4961 10.5171C10.9141 10.5171 9.67628 10.9932 8.82472 11.9331C7.59718 13.2881 7.35988 15.3755 7.52833 16.7563C7.86671 19.1108 8.7715 20.9839 10.3692 22.6577C10.4358 22.7271 10.4879 22.8091 10.5222 22.899C10.5565 22.9889 10.5725 23.0848 10.569 23.181C10.5655 23.2771 10.5428 23.3716 10.5021 23.4588C10.4614 23.546 10.4035 23.6241 10.332 23.6885C10.1944 23.8133 10.0154 23.8828 9.8296 23.8838Z" fill="#005C99"/>
<path d="M18.1885 21.7861C16.6016 21.7861 15.2524 21.3467 14.1729 20.4731C12.0039 18.7256 11.7607 15.8794 11.75 15.7593C11.7347 15.5621 11.7984 15.367 11.927 15.2167C12.0556 15.0665 12.2386 14.9735 12.4358 14.9583C12.633 14.943 12.8281 15.0066 12.9783 15.1352C13.1286 15.2639 13.2215 15.4469 13.2368 15.644C13.2422 15.686 13.459 18.0142 15.1309 19.355C16.1201 20.145 17.4424 20.4585 19.0718 20.2754C19.2665 20.2518 19.4627 20.3062 19.6174 20.4268C19.7721 20.5474 19.8728 20.7243 19.8975 20.9189C19.9081 21.0151 19.8995 21.1124 19.8722 21.2052C19.8449 21.2979 19.7993 21.3844 19.7382 21.4594C19.6771 21.5343 19.6017 21.5964 19.5164 21.642C19.4311 21.6875 19.3375 21.7156 19.2412 21.7246C18.8918 21.7654 18.5403 21.7859 18.1885 21.7861ZM19.4424 2.38232C18.8232 1.97949 16.6279 0.78125 12.5 0.78125C8.16699 0.78125 5.96631 2.10498 5.47949 2.44141C5.44734 2.46114 5.41724 2.48404 5.38965 2.50977C5.38674 2.51258 5.38294 2.51431 5.37891 2.51465C5.30117 2.58252 5.23879 2.66619 5.19594 2.76007C5.15308 2.85395 5.13073 2.95588 5.13037 3.05908C5.13171 3.15582 5.15212 3.25134 5.19044 3.34018C5.22875 3.42901 5.28423 3.50941 5.35367 3.57677C5.42312 3.64413 5.50517 3.69712 5.59513 3.73272C5.6851 3.76831 5.7812 3.78579 5.87793 3.78418C6.03298 3.78408 6.18428 3.73654 6.31152 3.64795C6.33252 3.63232 8.22656 2.24072 12.5015 2.24072C16.7764 2.24072 18.6807 3.62744 18.7012 3.6377C18.8312 3.7341 18.989 3.78552 19.1509 3.78418C19.2477 3.78566 19.3438 3.76801 19.4338 3.73224C19.5238 3.69647 19.6058 3.64328 19.6752 3.57573C19.7446 3.50818 19.7999 3.42759 19.838 3.3386C19.8762 3.2496 19.8964 3.15395 19.8975 3.05713C19.8975 2.9121 19.8542 2.77037 19.7731 2.65014C19.692 2.5299 19.5769 2.43664 19.4424 2.38232Z" fill="#005C99"/>
</svg>
