<svg width="25" height="25" viewBox="0 0 25 25" fill="none" xmlns="http://www.w3.org/2000/svg">
<path d="M10.9375 11.3281C10.9375 10.9137 11.1021 10.5163 11.3951 10.2233C11.6882 9.93025 12.0856 9.76562 12.5 9.76562C12.9144 9.76562 13.3118 9.93025 13.6049 10.2233C13.8979 10.5163 14.0625 10.9137 14.0625 11.3281M21.875 9.76562H22.6562M21.875 9.76562C21.875 14.4531 21.0938 16.0156 17.9688 16.0156C14.8438 16.0156 14.0625 14.4531 14.0625 9.76562C14.0625 9.76562 14.8438 8.98438 17.9688 8.98438C21.0938 8.98438 21.875 9.76562 21.875 9.76562ZM3.125 9.76562H2.34375M3.125 9.76562C3.125 14.4531 3.90625 16.0156 7.03125 16.0156C10.1562 16.0156 10.9375 14.4531 10.9375 9.76562C10.9375 9.76562 10.1562 8.98438 7.03125 8.98438C3.90625 8.98438 3.125 9.76562 3.125 9.76562Z" stroke="#00AAFF" stroke-width="2" stroke-linecap="round" stroke-linejoin="round"/>
</svg>
