<svg width="25" height="25" viewBox="0 0 25 25" fill="none" xmlns="http://www.w3.org/2000/svg">
<path d="M4.05273 18.75C3.41797 17.1387 2.34375 14.1909 2.34375 12.5C2.34375 6.89063 7.2915 2.34375 12.5 2.34375C17.7085 2.34375 22.6562 6.89063 22.6562 12.5C22.6562 14.1909 21.5332 17.2363 20.9473 18.75" stroke="#00AAFF" stroke-width="2" stroke-linecap="round" stroke-linejoin="round"/>
<path d="M5.29243 13.1899L4.62397 13.5806C3.1479 14.4448 3.07612 17.1162 4.45893 19.5474C5.84174 21.9785 8.16352 23.249 9.6396 22.3853L10.3081 21.9946C10.4855 21.889 10.6144 21.718 10.6672 21.5183C10.7199 21.3187 10.6923 21.1063 10.5903 20.9268L6.3476 13.4766C6.29758 13.388 6.23049 13.3103 6.1502 13.2478C6.06991 13.1854 5.97803 13.1395 5.87988 13.1129C5.78173 13.0862 5.67927 13.0793 5.57843 13.0925C5.47759 13.1057 5.38038 13.1389 5.29243 13.1899ZM19.7075 13.1899L20.3759 13.5806C21.852 14.4443 21.9257 17.1157 20.541 19.5469C19.1562 21.978 16.8364 23.2485 15.3603 22.3848L14.6918 21.9941C14.5144 21.8885 14.3855 21.7175 14.3327 21.5178C14.28 21.3182 14.3076 21.1058 14.4096 20.9263L18.6523 13.4766C18.7023 13.388 18.7694 13.3103 18.8497 13.2478C18.93 13.1854 19.0219 13.1395 19.12 13.1129C19.2182 13.0862 19.3206 13.0793 19.4215 13.0925C19.5223 13.1057 19.6195 13.1389 19.7075 13.1899Z" stroke="#00AAFF" stroke-width="2" stroke-miterlimit="10"/>
</svg>
