<svg width="25" height="25" viewBox="0 0 25 25" fill="none" xmlns="http://www.w3.org/2000/svg">
<path d="M3.90625 4.6875H2.34375C1.91228 4.6875 1.5625 5.03728 1.5625 5.46875V21.875C1.5625 22.3065 1.91228 22.6562 2.34375 22.6562H3.90625C4.33772 22.6562 4.6875 22.3065 4.6875 21.875V5.46875C4.6875 5.03728 4.33772 4.6875 3.90625 4.6875Z" stroke="#005C99" stroke-width="2" stroke-linejoin="round"/>
<path d="M5.46875 10.9375H11.7188M5.46875 19.5312H11.7188" stroke="#005C99" stroke-width="2" stroke-linecap="round" stroke-linejoin="round"/>
<path d="M10.9375 7.8125H6.25C5.81853 7.8125 5.46875 8.16228 5.46875 8.59375V21.875C5.46875 22.3065 5.81853 22.6562 6.25 22.6562H10.9375C11.369 22.6562 11.7188 22.3065 11.7188 21.875V8.59375C11.7188 8.16228 11.369 7.8125 10.9375 7.8125Z" stroke="#005C99" stroke-width="2" stroke-linejoin="round"/>
<path d="M16.4062 2.34375H13.2812C12.8498 2.34375 12.5 2.69353 12.5 3.125V21.875C12.5 22.3065 12.8498 22.6562 13.2812 22.6562H16.4062C16.8377 22.6562 17.1875 22.3065 17.1875 21.875V3.125C17.1875 2.69353 16.8377 2.34375 16.4062 2.34375Z" stroke="#005C99" stroke-width="2" stroke-linejoin="round"/>
<path d="M20.6278 4.69277L18.6552 4.90029C18.1122 4.95742 17.7186 5.46523 17.7797 6.02822L19.4848 21.7309C19.5463 22.2938 20.0399 22.7074 20.5829 22.6508L22.5556 22.4433C23.0985 22.3861 23.4921 21.8783 23.431 21.3153L21.7284 5.61513C21.6644 5.0497 21.1708 4.63564 20.6278 4.69277Z" stroke="#005C99" stroke-width="2" stroke-linejoin="round"/>
</svg>
