<svg width="25" height="25" viewBox="0 0 25 25" fill="none" xmlns="http://www.w3.org/2000/svg">
<path d="M16.0156 6.2499V22.6561M8.98438 2.34365V18.7499M15.2964 6.08583L9.70361 2.50771C9.48114 2.39658 9.23536 2.34016 8.9867 2.34313C8.73804 2.3461 8.49367 2.40838 8.27393 2.5248L2.75928 6.22499C2.63382 6.29146 2.52884 6.39085 2.45563 6.5125C2.38242 6.63415 2.34374 6.77344 2.34375 6.91542V21.3588C2.34374 21.4935 2.37857 21.626 2.44486 21.7433C2.51116 21.8605 2.60666 21.9587 2.72209 22.0282C2.83752 22.0977 2.96896 22.1361 3.10364 22.1398C3.23832 22.1435 3.37167 22.1123 3.49072 22.0492L8.26709 18.9345C8.48863 18.8171 8.73517 18.7548 8.98587 18.7527C9.23658 18.7507 9.4841 18.809 9.70752 18.9227L15.1694 22.4872C15.3909 22.6001 15.6361 22.6584 15.8847 22.6575C16.1333 22.6566 16.378 22.5963 16.5986 22.4818L22.2349 18.7738C22.3619 18.7079 22.4683 18.6084 22.5426 18.4861C22.6169 18.3639 22.6562 18.2235 22.6562 18.0805V3.64101C22.6563 3.50628 22.6214 3.37383 22.5551 3.25654C22.4888 3.13924 22.3933 3.04109 22.2779 2.9716C22.1625 2.90212 22.031 2.86367 21.8964 2.85998C21.7617 2.8563 21.6283 2.88751 21.5093 2.95058L16.7241 6.06874C16.5046 6.18483 16.2606 6.24694 16.0123 6.24991C15.764 6.25288 15.5186 6.19664 15.2964 6.08583Z" stroke="#00AAFF" stroke-width="2" stroke-linecap="round" stroke-linejoin="round"/>
</svg>
