<svg width="25" height="25" viewBox="0 0 25 25" fill="none" xmlns="http://www.w3.org/2000/svg">
<path d="M17.9688 20.3057V3.51562C17.9678 3.2051 17.8441 2.90755 17.6245 2.68798C17.4049 2.46841 17.1074 2.34465 16.7969 2.34375H3.51562C3.2051 2.34465 2.90755 2.46841 2.68798 2.68798C2.46841 2.90755 2.34465 3.2051 2.34375 3.51562V20.7031C2.3453 21.2207 2.55157 21.7165 2.91751 22.0825C3.28346 22.4484 3.77935 22.6547 4.29688 22.6562H20.3125" stroke="#00AAFF" stroke-width="2" stroke-linejoin="round"/>
<path d="M20.3125 22.6562C19.6909 22.6562 19.0948 22.4093 18.6552 21.9698C18.2157 21.5302 17.9688 20.9341 17.9688 20.3125V6.25H21.4844C21.7952 6.25 22.0932 6.37346 22.313 6.59323C22.5328 6.813 22.6562 7.11107 22.6562 7.42188V20.3125C22.6562 20.9341 22.4093 21.5302 21.9698 21.9698C21.5302 22.4093 20.9341 22.6562 20.3125 22.6562Z" stroke="#00AAFF" stroke-width="2" stroke-linejoin="round"/>
<path d="M11.7188 6.25H14.8438M11.7188 9.375H14.8438M5.46875 12.5H14.8438M5.46875 15.625H14.8438M5.46875 18.75H14.8438" stroke="#00AAFF" stroke-width="2" stroke-linecap="round" stroke-linejoin="round"/>
<path d="M8.59375 10.1562H5.46875C5.26155 10.1562 5.06284 10.0739 4.91632 9.92743C4.76981 9.78091 4.6875 9.5822 4.6875 9.375V6.25C4.6875 6.0428 4.76981 5.84409 4.91632 5.69757C5.06284 5.55106 5.26155 5.46875 5.46875 5.46875H8.59375C8.80095 5.46875 8.99966 5.55106 9.14618 5.69757C9.29269 5.84409 9.375 6.0428 9.375 6.25V9.375C9.375 9.5822 9.29269 9.78091 9.14618 9.92743C8.99966 10.0739 8.80095 10.1562 8.59375 10.1562Z" fill="#00AAFF"/>
</svg>
